<svg width="945" height="518" viewBox="0 0 945 518" fill="none" xmlns="http://www.w3.org/2000/svg">
<path opacity="0.6" d="M319.279 38.5861C283.321 -1.05255 91.1151 -16.3268 70.3385 46.003C64.9052 62.3031 93.2346 74.6673 78.4453 90.504C73.8101 95.4674 62.7428 98.8152 47.3917 100.949C18.5499 104.958 -15.0252 198.322 17.0727 202.53C51.5816 207.053 82.9521 192.476 116.085 186.782C127.164 184.879 139.894 196.535 149.957 201C154.462 202.876 238.983 181.299 273.457 215.5C306.319 248.101 266.868 293.926 292.457 332.5C326.457 383.751 388.068 357.607 437.165 394.65C481.154 427.84 476.02 480.928 529.054 501.737C576.758 520.455 653.752 518.584 700.14 494.551C721.263 483.607 718.167 454.083 743.996 447.06C770.907 439.742 799.919 476.466 824.885 485.786C852.537 496.108 950.752 483.037 940.162 436.43C935.362 415.304 877.828 420.208 864.582 421.915C845.409 424.387 841.477 453.419 817.73 444.294C787.621 432.724 835.697 339.759 811.552 313.557C796.17 296.863 769.656 322.832 752.761 325.675" stroke="url(#paint0_linear_3896_4770)" stroke-opacity="0.7" stroke-width="7" stroke-linecap="round"/>
<defs>
<linearGradient id="paint0_linear_3896_4770" x1="2.07853" y1="75.1099" x2="940.578" y2="489.11" gradientUnits="userSpaceOnUse">
<stop stop-color="#009CDE"/>
<stop offset="1" stop-color="#0AAC1A"/>
</linearGradient>
</defs>
</svg>
