<svg width="65" height="65" viewBox="0 0 65 65" fill="none" xmlns="http://www.w3.org/2000/svg">
<g opacity="0.5">
<path d="M7.07107 39.1214C3.16583 35.2161 3.16583 28.8845 7.07107 24.9792L10.6823 21.368L21.3646 32.0503L10.6823 42.7326L7.07107 39.1214Z" fill="#FF7300"/>
<rect x="10.6826" y="42.7324" width="15.107" height="15.107" transform="rotate(-45 10.6826 42.7324)" fill="#FF7300"/>
<path d="M21.3652 53.415L32.0475 42.7327L42.7298 53.415L39.1186 57.0263C35.2134 60.9315 28.8817 60.9315 24.9765 57.0263L21.3652 53.415Z" fill="#FF7300"/>
<path d="M10.6826 21.3682L21.3649 10.6859L32.0472 21.3682L21.3649 32.0505L10.6826 21.3682Z" fill="#009CDE"/>
<rect x="21.3652" y="32.0503" width="15.107" height="15.107" transform="rotate(-45 21.3652 32.0503)" fill="#64A70B"/>
<path d="M32.0469 42.7324L42.7292 32.0501L53.4115 42.7324L42.7292 53.4147L32.0469 42.7324Z" fill="#64A70B"/>
<path d="M21.3652 10.6855L24.9765 7.07433C28.8817 3.16909 35.2133 3.16908 39.1186 7.07433L42.7298 10.6855L32.0475 21.3678L21.3652 10.6855Z" fill="#009CDE"/>
<rect x="32.0469" y="21.3682" width="15.107" height="15.107" transform="rotate(-45 32.0469 21.3682)" fill="#009CDE"/>
<path d="M42.7295 32.0503L53.4118 21.368L57.023 24.9792C60.9282 28.8845 60.9282 35.2161 57.023 39.1214L53.4118 42.7326L42.7295 32.0503Z" fill="#64A70B"/>
</g>
</svg>
