<svg width="65" height="65" viewBox="0 0 65 65" fill="none" xmlns="http://www.w3.org/2000/svg">
<path d="M7.07107 39.1184C3.16583 35.2132 3.16583 28.8815 7.07107 24.9763L10.6823 21.3651L21.3646 32.0474L10.6823 42.7297L7.07107 39.1184Z" fill="#FF7300"/>
<rect x="10.6826" y="42.7295" width="15.107" height="15.107" transform="rotate(-45 10.6826 42.7295)" fill="#FF7300"/>
<path d="M21.3652 53.4121L32.0475 42.7298L42.7298 53.4121L39.1186 57.0233C35.2134 60.9286 28.8817 60.9286 24.9765 57.0233L21.3652 53.4121Z" fill="#FF7300"/>
<path opacity="0.3" d="M10.6826 21.3652L21.3649 10.6829L32.0472 21.3652L21.3649 32.0475L10.6826 21.3652Z" fill="#64A70B"/>
<rect opacity="0.3" x="21.3652" y="32.0474" width="15.107" height="15.107" transform="rotate(-45 21.3652 32.0474)" fill="#009CDE"/>
<path opacity="0.3" d="M32.0469 42.7295L42.7292 32.0472L53.4115 42.7295L42.7292 53.4118L32.0469 42.7295Z" fill="#009CDE"/>
<path opacity="0.3" d="M21.3652 10.6826L24.9765 7.0714C28.8817 3.16616 35.2133 3.16615 39.1186 7.0714L42.7298 10.6826L32.0475 21.3649L21.3652 10.6826Z" fill="#64A70B"/>
<rect opacity="0.3" x="32.0469" y="21.3652" width="15.107" height="15.107" transform="rotate(-45 32.0469 21.3652)" fill="#64A70B"/>
<path opacity="0.3" d="M42.7295 32.0474L53.4118 21.3651L57.023 24.9763C60.9282 28.8815 60.9282 35.2132 57.023 39.1184L53.4118 42.7297L42.7295 32.0474Z" fill="#009CDE"/>
</svg>
