<svg width="485" height="140" viewBox="0 0 485 140" fill="none" xmlns="http://www.w3.org/2000/svg">
<path d="M42.2352 14H40.4012V3.64H44.0692C46.5332 3.64 47.6252 5.208 47.6252 7.084C47.6252 8.96 46.5332 10.542 44.0692 10.542H42.2352V14ZM42.2352 8.778H44.0692C45.2872 8.778 45.8052 8.022 45.8052 7.098C45.8052 6.174 45.2872 5.404 44.0692 5.404H42.2352V8.778ZM55.2228 14H53.5008V13.566C52.9688 14 52.3388 14.182 51.6528 14.182C49.6928 14.182 48.1248 12.614 48.1248 10.696C48.1248 8.764 49.6928 7.224 51.6528 7.224C52.3248 7.224 52.9548 7.406 53.5008 7.84V7.35H55.2228V14ZM53.5008 10.696C53.5008 9.716 52.6748 8.876 51.6528 8.876C50.6448 8.876 49.8188 9.716 49.8188 10.696C49.8188 11.69 50.6448 12.53 51.6528 12.53C52.6748 12.53 53.5008 11.69 53.5008 10.696ZM56.6534 13.244L57.5634 11.928C58.1794 12.46 58.9214 12.614 59.3974 12.614C60.0134 12.614 60.2094 12.362 60.2094 12.124C60.2094 11.13 56.8354 11.746 56.8354 9.352C56.8354 8.134 57.7034 7.224 59.1874 7.224C59.7754 7.224 60.8534 7.364 61.6094 8.064L60.6994 9.296C60.1114 8.89 59.5654 8.792 59.2014 8.792C58.6274 8.792 58.5154 9.044 58.5154 9.212C58.5154 10.15 61.8474 9.702 61.8474 12.068C61.8474 13.286 60.9654 14.182 59.2854 14.182C58.0534 14.182 57.2554 13.706 56.6534 13.244ZM66.843 12.488V14.014C66.843 14.014 66.339 14.182 65.513 14.182C64.211 14.182 63.539 13.328 63.539 12.026V9.002H62.489V7.35H63.539V5.096H65.261V7.35H67.025V9.002H65.261V11.662C65.261 12.124 65.387 12.558 66.003 12.558C66.437 12.558 66.843 12.488 66.843 12.488Z" fill="white"/>
<path d="M265.064 14H263.23V3.64H266.898C269.362 3.64 270.454 5.208 270.454 7.084C270.454 8.96 269.362 10.542 266.898 10.542H265.064V14ZM265.064 8.778H266.898C268.116 8.778 268.634 8.022 268.634 7.098C268.634 6.174 268.116 5.404 266.898 5.404H265.064V8.778ZM273.509 14H271.787V7.35H273.509V7.84C274.153 7.364 274.783 7.224 276.071 7.224V8.876C273.873 8.876 273.509 9.492 273.509 10.64V14ZM283.663 11.242H278.595C278.791 12.054 279.449 12.628 280.443 12.628C281.045 12.628 281.689 12.404 282.081 11.886L283.257 12.824C282.655 13.678 281.591 14.182 280.457 14.182C278.455 14.182 276.915 12.684 276.915 10.738C276.915 8.848 278.245 7.224 280.359 7.224C282.319 7.224 283.705 8.82 283.705 10.696C283.705 10.878 283.691 11.074 283.663 11.242ZM278.651 9.982H281.969C281.871 9.31 281.171 8.792 280.345 8.792C279.547 8.792 278.903 9.268 278.651 9.982ZM284.637 13.244L285.547 11.928C286.163 12.46 286.905 12.614 287.381 12.614C287.997 12.614 288.193 12.362 288.193 12.124C288.193 11.13 284.819 11.746 284.819 9.352C284.819 8.134 285.687 7.224 287.171 7.224C287.759 7.224 288.837 7.364 289.593 8.064L288.683 9.296C288.095 8.89 287.549 8.792 287.185 8.792C286.611 8.792 286.499 9.044 286.499 9.212C286.499 10.15 289.831 9.702 289.831 12.068C289.831 13.286 288.949 14.182 287.269 14.182C286.037 14.182 285.239 13.706 284.637 13.244ZM297.704 11.242H292.636C292.832 12.054 293.49 12.628 294.484 12.628C295.086 12.628 295.73 12.404 296.122 11.886L297.298 12.824C296.696 13.678 295.632 14.182 294.498 14.182C292.496 14.182 290.956 12.684 290.956 10.738C290.956 8.848 292.286 7.224 294.4 7.224C296.36 7.224 297.746 8.82 297.746 10.696C297.746 10.878 297.732 11.074 297.704 11.242ZM292.692 9.982H296.01C295.912 9.31 295.212 8.792 294.386 8.792C293.588 8.792 292.944 9.268 292.692 9.982ZM305.469 14H303.747V10.444C303.747 9.156 303.061 8.876 302.375 8.876C301.689 8.876 301.003 9.142 301.003 10.416V14H299.281V7.35H301.003V7.84C301.381 7.56 301.843 7.224 302.753 7.224C304.209 7.224 305.469 8.078 305.469 10.164V14ZM311.014 12.488V14.014C311.014 14.014 310.51 14.182 309.684 14.182C308.382 14.182 307.71 13.328 307.71 12.026V9.002H306.66V7.35H307.71V5.096H309.432V7.35H311.196V9.002H309.432V11.662C309.432 12.124 309.558 12.558 310.174 12.558C310.608 12.558 311.014 12.488 311.014 12.488Z" fill="white"/>
<path d="M383.985 14H382.151V3.64H385.819C388.283 3.64 389.375 5.208 389.375 7.084C389.375 8.96 388.283 10.542 385.819 10.542H383.985V14ZM383.985 8.778H385.819C387.037 8.778 387.555 8.022 387.555 7.098C387.555 6.174 387.037 5.404 385.819 5.404H383.985V8.778ZM397.218 10.696C397.218 12.614 395.65 14.182 393.676 14.182C391.716 14.182 390.148 12.614 390.148 10.696C390.148 8.764 391.716 7.224 393.676 7.224C395.65 7.224 397.218 8.764 397.218 10.696ZM395.524 10.696C395.524 9.716 394.698 8.876 393.676 8.876C392.668 8.876 391.842 9.716 391.842 10.696C391.842 11.69 392.668 12.53 393.676 12.53C394.698 12.53 395.524 11.69 395.524 10.696ZM402.208 12.488V14.014C402.208 14.014 401.704 14.182 400.878 14.182C399.576 14.182 398.904 13.328 398.904 12.026V9.002H397.854V7.35H398.904V5.096H400.626V7.35H402.39V9.002H400.626V11.662C400.626 12.124 400.752 12.558 401.368 12.558C401.802 12.558 402.208 12.488 402.208 12.488ZM410.322 11.242H405.254C405.45 12.054 406.108 12.628 407.102 12.628C407.704 12.628 408.348 12.404 408.74 11.886L409.916 12.824C409.314 13.678 408.25 14.182 407.116 14.182C405.114 14.182 403.574 12.684 403.574 10.738C403.574 8.848 404.904 7.224 407.018 7.224C408.978 7.224 410.364 8.82 410.364 10.696C410.364 10.878 410.35 11.074 410.322 11.242ZM405.31 9.982H408.628C408.53 9.31 407.83 8.792 407.004 8.792C406.206 8.792 405.562 9.268 405.31 9.982ZM418.088 14H416.366V10.444C416.366 9.156 415.68 8.876 414.994 8.876C414.308 8.876 413.622 9.142 413.622 10.416V14H411.9V7.35H413.622V7.84C414 7.56 414.462 7.224 415.372 7.224C416.828 7.224 418.088 8.078 418.088 10.164V14ZM423.632 12.488V14.014C423.632 14.014 423.128 14.182 422.302 14.182C421 14.182 420.328 13.328 420.328 12.026V9.002H419.278V7.35H420.328V5.096H422.05V7.35H423.814V9.002H422.05V11.662C422.05 12.124 422.176 12.558 422.792 12.558C423.226 12.558 423.632 12.488 423.632 12.488ZM427.294 14H425.572V7.35H427.294V14ZM426.44 6.244C425.824 6.244 425.348 5.768 425.348 5.152C425.348 4.536 425.824 4.074 426.44 4.074C427.056 4.074 427.518 4.536 427.518 5.152C427.518 5.768 427.056 6.244 426.44 6.244ZM435.951 14H434.229V13.566C433.697 14 433.067 14.182 432.381 14.182C430.421 14.182 428.853 12.614 428.853 10.696C428.853 8.764 430.421 7.224 432.381 7.224C433.053 7.224 433.683 7.406 434.229 7.84V7.35H435.951V14ZM434.229 10.696C434.229 9.716 433.403 8.876 432.381 8.876C431.373 8.876 430.547 9.716 430.547 10.696C430.547 11.69 431.373 12.53 432.381 12.53C433.403 12.53 434.229 11.69 434.229 10.696ZM440.77 12.544V14.07C440.574 14.126 440.308 14.182 440.028 14.182C438.754 14.182 438.054 13.482 438.054 12.222V3.64H439.776V11.83C439.776 12.278 439.902 12.558 440.504 12.558C440.56 12.558 440.672 12.558 440.77 12.544Z" fill="white"/>
<rect opacity="0.5" y="31" width="485" height="109" rx="10" fill="url(#paint0_linear_4019_3248)"/>
<path d="M100.223 76H98.3886V65.64H102.057C104.521 65.64 105.613 67.208 105.613 69.084C105.613 70.96 104.521 72.542 102.057 72.542H100.223V76ZM100.223 70.778H102.057C103.275 70.778 103.793 70.022 103.793 69.098C103.793 68.174 103.275 67.404 102.057 67.404H100.223V70.778ZM113.134 73.242H108.066C108.262 74.054 108.92 74.628 109.914 74.628C110.516 74.628 111.16 74.404 111.552 73.886L112.728 74.824C112.126 75.678 111.062 76.182 109.928 76.182C107.926 76.182 106.386 74.684 106.386 72.738C106.386 70.848 107.716 69.224 109.83 69.224C111.79 69.224 113.176 70.82 113.176 72.696C113.176 72.878 113.162 73.074 113.134 73.242ZM108.122 71.982H111.44C111.342 71.31 110.642 70.792 109.816 70.792C109.018 70.792 108.374 71.268 108.122 71.982ZM116.433 76H114.711V69.35H116.433V69.84C117.077 69.364 117.707 69.224 118.995 69.224V70.876C116.797 70.876 116.433 71.492 116.433 72.64V76ZM122.604 76H120.882V71.002H119.902V69.35H120.882V67.796C120.882 66.494 121.498 65.64 122.94 65.64C123.318 65.64 123.892 65.696 124.228 65.808V67.334C124.228 67.334 123.738 67.264 123.416 67.264C122.884 67.264 122.604 67.46 122.604 68.16V69.35H124.088V71.002H122.604V76ZM132.282 72.696C132.282 74.614 130.714 76.182 128.74 76.182C126.78 76.182 125.212 74.614 125.212 72.696C125.212 70.764 126.78 69.224 128.74 69.224C130.714 69.224 132.282 70.764 132.282 72.696ZM130.588 72.696C130.588 71.716 129.762 70.876 128.74 70.876C127.732 70.876 126.906 71.716 126.906 72.696C126.906 73.69 127.732 74.53 128.74 74.53C129.762 74.53 130.588 73.69 130.588 72.696ZM135.546 76H133.824V69.35H135.546V69.84C136.19 69.364 136.82 69.224 138.108 69.224V70.876C135.91 70.876 135.546 71.492 135.546 72.64V76ZM149.886 76H148.164V72.444C148.164 71.086 147.562 70.876 146.946 70.876C146.26 70.876 145.56 71.142 145.56 72.416V76H143.838V72.444C143.838 71.086 143.236 70.876 142.62 70.876C141.934 70.876 141.234 71.142 141.234 72.416V76H139.512V69.35H141.234V69.84C141.654 69.532 142.074 69.224 142.956 69.224C143.824 69.224 144.594 69.532 145.056 70.218C145.686 69.462 146.582 69.224 147.282 69.224C148.752 69.224 149.886 70.078 149.886 72.164V76ZM158.382 76H156.66V75.566C156.128 76 155.498 76.182 154.812 76.182C152.852 76.182 151.284 74.614 151.284 72.696C151.284 70.764 152.852 69.224 154.812 69.224C155.484 69.224 156.114 69.406 156.66 69.84V69.35H158.382V76ZM156.66 72.696C156.66 71.716 155.834 70.876 154.812 70.876C153.804 70.876 152.978 71.716 152.978 72.696C152.978 73.69 153.804 74.53 154.812 74.53C155.834 74.53 156.66 73.69 156.66 72.696ZM166.673 76H164.951V72.444C164.951 71.156 164.265 70.876 163.579 70.876C162.893 70.876 162.207 71.142 162.207 72.416V76H160.485V69.35H162.207V69.84C162.585 69.56 163.047 69.224 163.957 69.224C165.413 69.224 166.673 70.078 166.673 72.164V76ZM173.155 73.676L174.611 74.544C173.995 75.524 172.875 76.182 171.601 76.182C169.641 76.182 168.073 74.614 168.073 72.696C168.073 70.764 169.641 69.224 171.601 69.224C172.861 69.224 173.953 69.854 174.583 70.806L173.113 71.66C172.777 71.184 172.231 70.876 171.601 70.876C170.593 70.876 169.767 71.716 169.767 72.696C169.767 73.69 170.593 74.53 171.601 74.53C172.259 74.53 172.833 74.194 173.155 73.676ZM182.204 73.242H177.136C177.332 74.054 177.99 74.628 178.984 74.628C179.586 74.628 180.23 74.404 180.622 73.886L181.798 74.824C181.196 75.678 180.132 76.182 178.998 76.182C176.996 76.182 175.456 74.684 175.456 72.738C175.456 70.848 176.786 69.224 178.9 69.224C180.86 69.224 182.246 70.82 182.246 72.696C182.246 72.878 182.232 73.074 182.204 73.242ZM177.192 71.982H180.51C180.412 71.31 179.712 70.792 178.886 70.792C178.088 70.792 177.444 71.268 177.192 71.982Z" fill="white"/>
<path d="M78.8105 96H77.1725L74.5405 91.492H72.7625V96H71.3345V85.64H75.1425C77.1865 85.64 78.5725 86.508 78.5725 88.566C78.5725 90.218 77.6905 91.17 76.1085 91.408L78.8105 96ZM72.7625 90.134H75.1285C76.3045 90.134 77.1445 89.812 77.1445 88.58C77.1445 87.474 76.4585 86.998 75.1285 86.998H72.7625V90.134ZM86.4903 93.158H81.0443C81.2263 94.18 82.0663 94.964 83.2003 94.964C83.9283 94.964 84.6423 94.642 85.0623 94.054L86.0143 94.782C85.3983 95.65 84.3483 96.182 83.2003 96.182C81.2683 96.182 79.7143 94.67 79.7143 92.71C79.7143 90.848 81.1283 89.224 83.1163 89.224C85.0903 89.224 86.5183 90.834 86.5183 92.696C86.5183 92.878 86.5043 93.018 86.4903 93.158ZM81.0863 92.094H85.1463C84.9923 91.17 84.1803 90.456 83.1303 90.456C82.0943 90.456 81.3243 91.156 81.0863 92.094ZM87.505 95.314L88.233 94.278C88.905 94.824 89.619 94.964 90.095 94.964C90.809 94.964 91.201 94.656 91.201 94.208C91.201 92.892 87.743 93.704 87.743 91.31C87.743 90.092 88.639 89.224 90.025 89.224C90.585 89.224 91.523 89.364 92.279 89.98L91.565 90.974C90.977 90.54 90.389 90.456 90.039 90.456C89.367 90.456 89.073 90.792 89.073 91.156C89.073 92.416 92.517 91.73 92.517 94.124C92.517 95.398 91.551 96.182 90.053 96.182C89.059 96.182 88.191 95.832 87.505 95.314ZM98.7976 92.92V89.35H100.142V93.298C100.142 95.384 98.9796 96.182 97.1176 96.182C95.2556 96.182 94.0936 95.384 94.0936 93.298V89.35H95.4516V92.92C95.4516 94.166 95.7456 94.922 97.1176 94.922C98.5036 94.922 98.7976 94.166 98.7976 92.92ZM104.778 94.908V96.084C104.554 96.14 104.316 96.182 104.036 96.182C102.944 96.182 102.272 95.524 102.272 94.306V85.64H103.616V93.886C103.616 94.6 103.784 94.922 104.442 94.922C104.526 94.922 104.652 94.922 104.778 94.908ZM109.196 94.824V96.028C109.056 96.084 108.636 96.182 108.146 96.182C106.508 96.182 106.214 95.104 106.214 93.956V90.624H105.164V89.35H106.214V87.096H107.572V89.35H109.378V90.624H107.572V93.802C107.572 94.558 107.74 94.922 108.454 94.922C108.692 94.922 109.056 94.88 109.196 94.824ZM110.351 95.314L111.079 94.278C111.751 94.824 112.465 94.964 112.941 94.964C113.655 94.964 114.047 94.656 114.047 94.208C114.047 92.892 110.589 93.704 110.589 91.31C110.589 90.092 111.485 89.224 112.871 89.224C113.431 89.224 114.369 89.364 115.125 89.98L114.411 90.974C113.823 90.54 113.235 90.456 112.885 90.456C112.213 90.456 111.919 90.792 111.919 91.156C111.919 92.416 115.363 91.73 115.363 94.124C115.363 95.398 114.397 96.182 112.899 96.182C111.905 96.182 111.037 95.832 110.351 95.314ZM122.197 96H120.839V89.35H122.197V96ZM121.525 88.034C121.035 88.034 120.657 87.656 120.657 87.166C120.657 86.676 121.035 86.298 121.525 86.298C122.015 86.298 122.379 86.676 122.379 87.166C122.379 87.656 122.015 88.034 121.525 88.034ZM130.454 96H129.096V92.514C129.096 91.184 128.578 90.498 127.472 90.498C126.324 90.498 125.778 91.24 125.778 92.612V96H124.434V89.35H125.778V90.064C126.226 89.56 126.772 89.224 127.71 89.224C129.292 89.224 130.454 90.148 130.454 92.234V96ZM141.131 93.872L142.251 94.53C141.635 95.524 140.515 96.182 139.255 96.182C137.337 96.182 135.769 94.628 135.769 92.71C135.769 90.806 137.309 89.224 139.255 89.224C140.501 89.224 141.607 89.882 142.223 90.862L141.089 91.506C140.711 90.904 140.025 90.498 139.255 90.498C138.037 90.498 137.099 91.534 137.099 92.724C137.099 93.914 138.051 94.922 139.283 94.922C140.081 94.922 140.753 94.502 141.131 93.872ZM148.303 92.92V89.35H149.647V93.298C149.647 95.384 148.485 96.182 146.623 96.182C144.761 96.182 143.599 95.384 143.599 93.298V89.35H144.957V92.92C144.957 94.166 145.251 94.922 146.623 94.922C148.009 94.922 148.303 94.166 148.303 92.92ZM153.122 96H151.778V89.35H153.122V90.148C153.766 89.378 154.424 89.224 155.712 89.224V90.512C153.514 90.512 153.122 91.408 153.122 92.556V96ZM158.413 96H157.069V89.35H158.413V90.148C159.057 89.378 159.715 89.224 161.003 89.224V90.512C158.805 90.512 158.413 91.408 158.413 92.556V96ZM168.576 93.158H163.13C163.312 94.18 164.152 94.964 165.286 94.964C166.014 94.964 166.728 94.642 167.148 94.054L168.1 94.782C167.484 95.65 166.434 96.182 165.286 96.182C163.354 96.182 161.8 94.67 161.8 92.71C161.8 90.848 163.214 89.224 165.202 89.224C167.176 89.224 168.604 90.834 168.604 92.696C168.604 92.878 168.59 93.018 168.576 93.158ZM163.172 92.094H167.232C167.078 91.17 166.266 90.456 165.216 90.456C164.18 90.456 163.41 91.156 163.172 92.094ZM176.269 96H174.911V92.514C174.911 91.184 174.393 90.498 173.287 90.498C172.139 90.498 171.593 91.24 171.593 92.612V96H170.249V89.35H171.593V90.064C172.041 89.56 172.587 89.224 173.525 89.224C175.107 89.224 176.269 90.148 176.269 92.234V96ZM181.52 94.824V96.028C181.38 96.084 180.96 96.182 180.47 96.182C178.832 96.182 178.538 95.104 178.538 93.956V90.624H177.488V89.35H178.538V87.096H179.896V89.35H181.702V90.624H179.896V93.802C179.896 94.558 180.064 94.922 180.778 94.922C181.016 94.922 181.38 94.88 181.52 94.824ZM188.245 96H186.901V89.35H188.245V90.148C188.889 89.378 189.547 89.224 190.835 89.224V90.512C188.637 90.512 188.245 91.408 188.245 92.556V96ZM198.632 92.71C198.632 94.614 197.05 96.182 195.118 96.182C193.2 96.182 191.632 94.628 191.632 92.71C191.632 90.806 193.172 89.224 195.118 89.224C197.05 89.224 198.632 90.792 198.632 92.71ZM197.302 92.696C197.302 91.492 196.336 90.498 195.132 90.498C193.886 90.498 192.962 91.548 192.962 92.724C192.962 93.914 193.914 94.922 195.132 94.922C196.364 94.922 197.302 93.886 197.302 92.696ZM202.819 94.908V96.084C202.595 96.14 202.357 96.182 202.077 96.182C200.985 96.182 200.313 95.524 200.313 94.306V85.64H201.657V93.886C201.657 94.6 201.825 94.922 202.483 94.922C202.567 94.922 202.693 94.922 202.819 94.908ZM210.303 93.158H204.857C205.039 94.18 205.879 94.964 207.013 94.964C207.741 94.964 208.455 94.642 208.875 94.054L209.827 94.782C209.211 95.65 208.161 96.182 207.013 96.182C205.081 96.182 203.527 94.67 203.527 92.71C203.527 90.848 204.941 89.224 206.929 89.224C208.903 89.224 210.331 90.834 210.331 92.696C210.331 92.878 210.317 93.018 210.303 93.158ZM204.899 92.094H208.959C208.805 91.17 207.993 90.456 206.943 90.456C205.907 90.456 205.137 91.156 204.899 92.094Z" fill="white"/>
<path d="M379.985 63H378.151V52.64H381.819C384.283 52.64 385.375 54.208 385.375 56.084C385.375 57.96 384.283 59.542 381.819 59.542H379.985V63ZM379.985 57.778H381.819C383.037 57.778 383.555 57.022 383.555 56.098C383.555 55.174 383.037 54.404 381.819 54.404H379.985V57.778ZM393.218 59.696C393.218 61.614 391.65 63.182 389.676 63.182C387.716 63.182 386.148 61.614 386.148 59.696C386.148 57.764 387.716 56.224 389.676 56.224C391.65 56.224 393.218 57.764 393.218 59.696ZM391.524 59.696C391.524 58.716 390.698 57.876 389.676 57.876C388.668 57.876 387.842 58.716 387.842 59.696C387.842 60.69 388.668 61.53 389.676 61.53C390.698 61.53 391.524 60.69 391.524 59.696ZM398.208 61.488V63.014C398.208 63.014 397.704 63.182 396.878 63.182C395.576 63.182 394.904 62.328 394.904 61.026V58.002H393.854V56.35H394.904V54.096H396.626V56.35H398.39V58.002H396.626V60.662C396.626 61.124 396.752 61.558 397.368 61.558C397.802 61.558 398.208 61.488 398.208 61.488ZM406.322 60.242H401.254C401.45 61.054 402.108 61.628 403.102 61.628C403.704 61.628 404.348 61.404 404.74 60.886L405.916 61.824C405.314 62.678 404.25 63.182 403.116 63.182C401.114 63.182 399.574 61.684 399.574 59.738C399.574 57.848 400.904 56.224 403.018 56.224C404.978 56.224 406.364 57.82 406.364 59.696C406.364 59.878 406.35 60.074 406.322 60.242ZM401.31 58.982H404.628C404.53 58.31 403.83 57.792 403.004 57.792C402.206 57.792 401.562 58.268 401.31 58.982ZM414.088 63H412.366V59.444C412.366 58.156 411.68 57.876 410.994 57.876C410.308 57.876 409.622 58.142 409.622 59.416V63H407.9V56.35H409.622V56.84C410 56.56 410.462 56.224 411.372 56.224C412.828 56.224 414.088 57.078 414.088 59.164V63ZM419.632 61.488V63.014C419.632 63.014 419.128 63.182 418.302 63.182C417 63.182 416.328 62.328 416.328 61.026V58.002H415.278V56.35H416.328V54.096H418.05V56.35H419.814V58.002H418.05V60.662C418.05 61.124 418.176 61.558 418.792 61.558C419.226 61.558 419.632 61.488 419.632 61.488ZM423.294 63H421.572V56.35H423.294V63ZM422.44 55.244C421.824 55.244 421.348 54.768 421.348 54.152C421.348 53.536 421.824 53.074 422.44 53.074C423.056 53.074 423.518 53.536 423.518 54.152C423.518 54.768 423.056 55.244 422.44 55.244ZM431.951 63H430.229V62.566C429.697 63 429.067 63.182 428.381 63.182C426.421 63.182 424.853 61.614 424.853 59.696C424.853 57.764 426.421 56.224 428.381 56.224C429.053 56.224 429.683 56.406 430.229 56.84V56.35H431.951V63ZM430.229 59.696C430.229 58.716 429.403 57.876 428.381 57.876C427.373 57.876 426.547 58.716 426.547 59.696C426.547 60.69 427.373 61.53 428.381 61.53C429.403 61.53 430.229 60.69 430.229 59.696ZM436.77 61.544V63.07C436.574 63.126 436.308 63.182 436.028 63.182C434.754 63.182 434.054 62.482 434.054 61.222V52.64H435.776V60.83C435.776 61.278 435.902 61.558 436.504 61.558C436.56 61.558 436.672 61.558 436.77 61.544Z" fill="white"/>
<path d="M346.479 83H340.179V72.64H341.607V81.656H346.479V83ZM354.132 80.158H348.686C348.868 81.18 349.708 81.964 350.842 81.964C351.57 81.964 352.284 81.642 352.704 81.054L353.656 81.782C353.04 82.65 351.99 83.182 350.842 83.182C348.91 83.182 347.356 81.67 347.356 79.71C347.356 77.848 348.77 76.224 350.758 76.224C352.732 76.224 354.16 77.834 354.16 79.696C354.16 79.878 354.146 80.018 354.132 80.158ZM348.728 79.094H352.788C352.634 78.17 351.822 77.456 350.772 77.456C349.736 77.456 348.966 78.156 348.728 79.094ZM362.329 83H360.985V82.216C360.425 82.874 359.655 83.182 358.759 83.182C356.785 83.182 355.245 81.656 355.245 79.71C355.245 77.736 356.813 76.224 358.759 76.224C359.655 76.224 360.411 76.546 360.985 77.204V76.35H362.329V83ZM360.957 79.71C360.957 78.506 360.019 77.498 358.759 77.498C357.513 77.498 356.575 78.478 356.575 79.71C356.575 80.956 357.513 81.922 358.759 81.922C360.033 81.922 360.957 80.914 360.957 79.71ZM371.092 83H369.748V82.216C369.188 82.874 368.418 83.182 367.522 83.182C365.548 83.182 364.008 81.656 364.008 79.71C364.008 77.736 365.576 76.224 367.522 76.224C368.418 76.224 369.174 76.546 369.748 77.204V72.64H371.092V83ZM369.72 79.71C369.72 78.506 368.782 77.498 367.522 77.498C366.276 77.498 365.338 78.478 365.338 79.71C365.338 80.956 366.276 81.922 367.522 81.922C368.796 81.922 369.72 80.914 369.72 79.71ZM379.548 80.158H374.102C374.284 81.18 375.124 81.964 376.258 81.964C376.986 81.964 377.7 81.642 378.12 81.054L379.072 81.782C378.456 82.65 377.406 83.182 376.258 83.182C374.326 83.182 372.772 81.67 372.772 79.71C372.772 77.848 374.186 76.224 376.174 76.224C378.148 76.224 379.576 77.834 379.576 79.696C379.576 79.878 379.562 80.018 379.548 80.158ZM374.144 79.094H378.204C378.05 78.17 377.238 77.456 376.188 77.456C375.152 77.456 374.382 78.156 374.144 79.094ZM382.565 83H381.221V76.35H382.565V77.148C383.209 76.378 383.867 76.224 385.155 76.224V77.512C382.957 77.512 382.565 78.408 382.565 79.556V83ZM385.785 82.314L386.513 81.278C387.185 81.824 387.899 81.964 388.375 81.964C389.089 81.964 389.481 81.656 389.481 81.208C389.481 79.892 386.023 80.704 386.023 78.31C386.023 77.092 386.919 76.224 388.305 76.224C388.865 76.224 389.803 76.364 390.559 76.98L389.845 77.974C389.257 77.54 388.669 77.456 388.319 77.456C387.647 77.456 387.353 77.792 387.353 78.156C387.353 79.416 390.797 78.73 390.797 81.124C390.797 82.398 389.831 83.182 388.333 83.182C387.339 83.182 386.471 82.832 385.785 82.314ZM398.52 83H397.162V79.514C397.162 78.184 396.644 77.498 395.538 77.498C394.39 77.498 393.844 78.24 393.844 79.612V83H392.5V72.64H393.844V77.064C394.292 76.56 394.838 76.224 395.776 76.224C397.358 76.224 398.52 77.148 398.52 79.234V83ZM401.979 83H400.621V76.35H401.979V83ZM401.307 75.034C400.817 75.034 400.439 74.656 400.439 74.166C400.439 73.676 400.817 73.298 401.307 73.298C401.797 73.298 402.161 73.676 402.161 74.166C402.161 74.656 401.797 75.034 401.307 75.034ZM405.561 86.542H404.217V76.35H405.561V77.204C406.121 76.546 406.891 76.224 407.787 76.224C409.733 76.224 411.301 77.736 411.301 79.71C411.301 81.656 409.761 83.182 407.787 83.182C406.891 83.182 406.121 82.874 405.561 82.216V86.542ZM405.603 79.71C405.603 80.914 406.485 81.922 407.773 81.922C409.033 81.922 409.971 80.956 409.971 79.71C409.971 78.478 409.033 77.498 407.787 77.498C406.541 77.498 405.603 78.478 405.603 79.71ZM423.568 83H419.41C417.31 83 415.98 81.754 415.98 79.976C415.98 78.884 416.498 77.918 417.66 77.498C416.722 77.05 416.26 76.154 416.26 75.216C416.26 73.718 417.45 72.458 419.186 72.458C419.914 72.458 420.544 72.682 421.062 73.13L420.348 74.166C420.012 73.886 419.592 73.732 419.158 73.732C418.304 73.732 417.66 74.348 417.66 75.23C417.66 76.112 418.318 76.854 419.382 76.854H420.964V75.188H422.392V76.854H423.568V78.198H422.392V81.656H423.568V83ZM420.964 81.67V78.198H419.466C418.486 78.198 417.408 78.548 417.408 79.864C417.408 81.096 418.346 81.67 419.55 81.67H420.964ZM438.726 83H437.382V79.514C437.382 78.198 437.046 77.498 436.01 77.498C434.96 77.498 434.414 78.198 434.414 79.612V83H433.056V79.514C433.056 78.184 432.72 77.498 431.684 77.498C430.634 77.498 430.088 78.212 430.088 79.612V83H428.744V76.35H430.088V77.064C430.592 76.504 431.11 76.224 431.908 76.224C432.818 76.224 433.63 76.588 434.036 77.456C434.68 76.476 435.478 76.224 436.248 76.224C437.732 76.224 438.726 77.148 438.726 79.234V83ZM447.27 79.71C447.27 81.614 445.688 83.182 443.756 83.182C441.838 83.182 440.27 81.628 440.27 79.71C440.27 77.806 441.81 76.224 443.756 76.224C445.688 76.224 447.27 77.792 447.27 79.71ZM445.94 79.696C445.94 78.492 444.974 77.498 443.77 77.498C442.524 77.498 441.6 78.548 441.6 79.724C441.6 80.914 442.552 81.922 443.77 81.922C445.002 81.922 445.94 80.886 445.94 79.696ZM450.295 83H448.951V76.35H450.295V77.148C450.939 76.378 451.597 76.224 452.885 76.224V77.512C450.687 77.512 450.295 78.408 450.295 79.556V83ZM460.458 80.158H455.012C455.194 81.18 456.034 81.964 457.168 81.964C457.896 81.964 458.61 81.642 459.03 81.054L459.982 81.782C459.366 82.65 458.316 83.182 457.168 83.182C455.236 83.182 453.682 81.67 453.682 79.71C453.682 77.848 455.096 76.224 457.084 76.224C459.058 76.224 460.486 77.834 460.486 79.696C460.486 79.878 460.472 80.018 460.458 80.158ZM455.054 79.094H459.114C458.96 78.17 458.148 77.456 457.098 77.456C456.062 77.456 455.292 78.156 455.054 79.094ZM347.558 103H346.214V92.64H347.558V97.204C348.118 96.546 348.888 96.224 349.784 96.224C351.73 96.224 353.298 97.736 353.298 99.71C353.298 101.656 351.758 103.182 349.784 103.182C348.888 103.182 348.118 102.874 347.558 102.216V103ZM347.6 99.71C347.6 100.914 348.482 101.922 349.77 101.922C351.03 101.922 351.968 100.956 351.968 99.71C351.968 98.478 351.03 97.498 349.784 97.498C348.538 97.498 347.6 98.478 347.6 99.71ZM356.321 103H354.977V96.35H356.321V97.148C356.965 96.378 357.623 96.224 358.911 96.224V97.512C356.713 97.512 356.321 98.408 356.321 99.556V103ZM366.708 99.71C366.708 101.614 365.126 103.182 363.194 103.182C361.276 103.182 359.708 101.628 359.708 99.71C359.708 97.806 361.248 96.224 363.194 96.224C365.126 96.224 366.708 97.792 366.708 99.71ZM365.378 99.696C365.378 98.492 364.412 97.498 363.208 97.498C361.962 97.498 361.038 98.548 361.038 99.724C361.038 100.914 361.99 101.922 363.208 101.922C364.44 101.922 365.378 100.886 365.378 99.696ZM374.914 103H373.57V102.216C373.01 102.874 372.24 103.182 371.344 103.182C369.37 103.182 367.83 101.656 367.83 99.71C367.83 97.736 369.398 96.224 371.344 96.224C372.24 96.224 372.996 96.546 373.57 97.204V96.35H374.914V103ZM373.542 99.71C373.542 98.506 372.604 97.498 371.344 97.498C370.098 97.498 369.16 98.478 369.16 99.71C369.16 100.956 370.098 101.922 371.344 101.922C372.618 101.922 373.542 100.914 373.542 99.71ZM383.677 103H382.333V102.216C381.773 102.874 381.003 103.182 380.107 103.182C378.133 103.182 376.593 101.656 376.593 99.71C376.593 97.736 378.161 96.224 380.107 96.224C381.003 96.224 381.759 96.546 382.333 97.204V92.64H383.677V103ZM382.305 99.71C382.305 98.506 381.367 97.498 380.107 97.498C378.861 97.498 377.923 98.478 377.923 99.71C377.923 100.956 378.861 101.922 380.107 101.922C381.381 101.922 382.305 100.914 382.305 99.71ZM396.504 103H392.346C390.246 103 388.916 101.754 388.916 99.976C388.916 98.884 389.434 97.918 390.596 97.498C389.658 97.05 389.196 96.154 389.196 95.216C389.196 93.718 390.386 92.458 392.122 92.458C392.85 92.458 393.48 92.682 393.998 93.13L393.284 94.166C392.948 93.886 392.528 93.732 392.094 93.732C391.24 93.732 390.596 94.348 390.596 95.23C390.596 96.112 391.254 96.854 392.318 96.854H393.9V95.188H395.328V96.854H396.504V98.198H395.328V101.656H396.504V103ZM393.9 101.67V98.198H392.402C391.422 98.198 390.344 98.548 390.344 99.864C390.344 101.096 391.282 101.67 392.486 101.67H393.9ZM406.483 100.872L407.603 101.53C406.987 102.524 405.867 103.182 404.607 103.182C402.689 103.182 401.121 101.628 401.121 99.71C401.121 97.806 402.661 96.224 404.607 96.224C405.853 96.224 406.959 96.882 407.575 97.862L406.441 98.506C406.063 97.904 405.377 97.498 404.607 97.498C403.389 97.498 402.451 98.534 402.451 99.724C402.451 100.914 403.403 101.922 404.635 101.922C405.433 101.922 406.105 101.502 406.483 100.872ZM415.517 99.71C415.517 101.614 413.935 103.182 412.003 103.182C410.085 103.182 408.517 101.628 408.517 99.71C408.517 97.806 410.057 96.224 412.003 96.224C413.935 96.224 415.517 97.792 415.517 99.71ZM414.187 99.696C414.187 98.492 413.221 97.498 412.017 97.498C410.771 97.498 409.847 98.548 409.847 99.724C409.847 100.914 410.799 101.922 412.017 101.922C413.249 101.922 414.187 100.886 414.187 99.696ZM427.18 103H425.836V99.514C425.836 98.198 425.5 97.498 424.464 97.498C423.414 97.498 422.868 98.198 422.868 99.612V103H421.51V99.514C421.51 98.184 421.174 97.498 420.138 97.498C419.088 97.498 418.542 98.212 418.542 99.612V103H417.198V96.35H418.542V97.064C419.046 96.504 419.564 96.224 420.362 96.224C421.272 96.224 422.084 96.588 422.49 97.456C423.134 96.476 423.932 96.224 424.702 96.224C426.186 96.224 427.18 97.148 427.18 99.234V103ZM430.628 106.542H429.284V96.35H430.628V97.204C431.188 96.546 431.958 96.224 432.854 96.224C434.8 96.224 436.368 97.736 436.368 99.71C436.368 101.656 434.828 103.182 432.854 103.182C431.958 103.182 431.188 102.874 430.628 102.216V106.542ZM430.67 99.71C430.67 100.914 431.552 101.922 432.84 101.922C434.1 101.922 435.038 100.956 435.038 99.71C435.038 98.478 434.1 97.498 432.854 97.498C431.608 97.498 430.67 98.478 430.67 99.71ZM440.554 101.908V103.084C440.33 103.14 440.092 103.182 439.812 103.182C438.72 103.182 438.048 102.524 438.048 101.306V92.64H439.392V100.886C439.392 101.6 439.56 101.922 440.218 101.922C440.302 101.922 440.428 101.922 440.554 101.908ZM448.037 100.158H442.591C442.773 101.18 443.613 101.964 444.747 101.964C445.475 101.964 446.189 101.642 446.609 101.054L447.561 101.782C446.945 102.65 445.895 103.182 444.747 103.182C442.815 103.182 441.261 101.67 441.261 99.71C441.261 97.848 442.675 96.224 444.663 96.224C446.637 96.224 448.065 97.834 448.065 99.696C448.065 99.878 448.051 100.018 448.037 100.158ZM442.633 99.094H446.693C446.539 98.17 445.727 97.456 444.677 97.456C443.641 97.456 442.871 98.156 442.633 99.094ZM454.837 103H453.339L451.715 100.592L450.091 103H448.593L450.959 99.5L448.803 96.35H450.315L451.715 98.408L453.115 96.35H454.627L452.471 99.5L454.837 103ZM386.899 123H385.555V116.35H386.899V117.148C387.543 116.378 388.201 116.224 389.489 116.224V117.512C387.291 117.512 386.899 118.408 386.899 119.556V123ZM397.286 119.71C397.286 121.614 395.704 123.182 393.772 123.182C391.854 123.182 390.286 121.628 390.286 119.71C390.286 117.806 391.826 116.224 393.772 116.224C395.704 116.224 397.286 117.792 397.286 119.71ZM395.956 119.696C395.956 118.492 394.99 117.498 393.786 117.498C392.54 117.498 391.616 118.548 391.616 119.724C391.616 120.914 392.568 121.922 393.786 121.922C395.018 121.922 395.956 120.886 395.956 119.696ZM401.473 121.908V123.084C401.249 123.14 401.011 123.182 400.731 123.182C399.639 123.182 398.967 122.524 398.967 121.306V112.64H400.311V120.886C400.311 121.6 400.479 121.922 401.137 121.922C401.221 121.922 401.347 121.922 401.473 121.908ZM408.956 120.158H403.51C403.692 121.18 404.532 121.964 405.666 121.964C406.394 121.964 407.108 121.642 407.528 121.054L408.48 121.782C407.864 122.65 406.814 123.182 405.666 123.182C403.734 123.182 402.18 121.67 402.18 119.71C402.18 117.848 403.594 116.224 405.582 116.224C407.556 116.224 408.984 117.834 408.984 119.696C408.984 119.878 408.97 120.018 408.956 120.158ZM403.552 119.094H407.612C407.458 118.17 406.646 117.456 405.596 117.456C404.56 117.456 403.79 118.156 403.552 119.094ZM409.971 122.314L410.699 121.278C411.371 121.824 412.085 121.964 412.561 121.964C413.275 121.964 413.667 121.656 413.667 121.208C413.667 119.892 410.209 120.704 410.209 118.31C410.209 117.092 411.105 116.224 412.491 116.224C413.051 116.224 413.989 116.364 414.745 116.98L414.031 117.974C413.443 117.54 412.855 117.456 412.505 117.456C411.833 117.456 411.539 117.792 411.539 118.156C411.539 119.416 414.983 118.73 414.983 121.124C414.983 122.398 414.017 123.182 412.519 123.182C411.525 123.182 410.657 122.832 409.971 122.314Z" fill="white"/>
<defs>
<linearGradient id="paint0_linear_4019_3248" x1="0" y1="85.5" x2="485" y2="85.5" gradientUnits="userSpaceOnUse">
<stop stop-color="#00A7B5"/>
<stop offset="1" stop-color="#64A70B"/>
</linearGradient>
</defs>
</svg>
