<svg width="299" height="290" viewBox="0 0 299 290" fill="none" xmlns="http://www.w3.org/2000/svg">
<circle cx="99.2443" cy="190.176" r="70.1761" transform="rotate(135 99.2443 190.176)" fill="#C8E7F9" fill-opacity="0.5"/>
<circle cx="198.814" cy="190.176" r="70.1761" transform="rotate(135 198.814 190.176)" fill="#B0D979" fill-opacity="0.3"/>
<circle cx="149.18" cy="99.2422" r="70.1761" transform="rotate(135 149.18 99.2422)" fill="#6AF2FD" fill-opacity="0.3"/>
<path d="M112.337 101.998H110.349L109.495 99.786H105.029L104.189 101.998H102.201L106.345 91.638H108.207L112.337 101.998ZM108.837 98.036L107.269 93.92L105.687 98.036H108.837ZM112.896 100.346L114.044 99.156C114.618 99.814 115.304 100.5 116.452 100.5C117.628 100.5 118.09 99.772 118.09 99.128C118.09 97.098 113.414 97.84 113.414 94.438C113.414 92.562 114.828 91.456 116.76 91.456C117.684 91.456 118.552 91.708 119.546 92.436L118.594 93.864C118.006 93.346 117.32 93.136 116.676 93.136C115.766 93.136 115.234 93.556 115.234 94.256C115.234 96.342 119.924 95.39 119.924 99.044C119.924 100.892 118.734 102.18 116.438 102.18C115.22 102.18 113.974 101.816 112.896 100.346ZM123.366 101.998H121.532V91.638H125.2C127.664 91.638 128.756 93.206 128.756 95.082C128.756 96.958 127.664 98.54 125.2 98.54H123.366V101.998ZM123.366 96.776H125.2C126.418 96.776 126.936 96.02 126.936 95.096C126.936 94.172 126.418 93.402 125.2 93.402H123.366V96.776ZM131.993 101.998H130.159V91.638H131.993V101.998ZM141.878 101.998H139.82L137.314 97.7H136.068V101.998H134.234V91.638H138.434C140.548 91.638 141.696 92.856 141.696 94.676C141.696 96.23 140.856 97.336 139.302 97.602L141.878 101.998ZM136.068 95.936H138.462C139.316 95.936 139.862 95.474 139.862 94.69C139.862 93.892 139.316 93.402 138.462 93.402H136.068V95.936ZM152.369 101.998H150.381L149.527 99.786H145.061L144.221 101.998H142.233L146.377 91.638H148.239L152.369 101.998ZM148.869 98.036L147.301 93.92L145.719 98.036H148.869ZM157.114 101.998H155.28V93.402H151.948V91.638H160.432V93.402H157.114V101.998ZM163.739 101.998H161.905V91.638H163.739V101.998ZM176.102 96.818C176.102 99.814 173.708 102.18 170.698 102.18C167.716 102.18 165.28 99.856 165.28 96.832C165.28 93.878 167.604 91.456 170.684 91.456C173.722 91.456 176.102 93.822 176.102 96.818ZM170.698 100.5C172.686 100.5 174.268 98.862 174.268 96.832C174.268 94.802 172.7 93.136 170.684 93.136C168.654 93.136 167.1 94.844 167.1 96.846C167.1 98.876 168.71 100.5 170.698 100.5ZM187.106 101.998H185.174L179.476 94.116V101.998H177.642V91.638H179.952L185.286 99.002V91.638H187.106V101.998ZM188.365 100.346L189.513 99.156C190.087 99.814 190.773 100.5 191.921 100.5C193.097 100.5 193.559 99.772 193.559 99.128C193.559 97.098 188.883 97.84 188.883 94.438C188.883 92.562 190.297 91.456 192.229 91.456C193.153 91.456 194.021 91.708 195.015 92.436L194.063 93.864C193.475 93.346 192.789 93.136 192.145 93.136C191.235 93.136 190.703 93.556 190.703 94.256C190.703 96.342 195.393 95.39 195.393 99.044C195.393 100.892 194.203 102.18 191.907 102.18C190.689 102.18 189.443 101.816 188.365 100.346Z" fill="white"/>
<path d="M77.6851 195.998H75.6971L74.8431 193.786H70.3771L69.5371 195.998H67.5491L71.6931 185.638H73.5551L77.6851 195.998ZM74.1851 192.036L72.6171 187.92L71.0351 192.036H74.1851ZM88.2779 190.02V191.21C88.2779 193.87 86.7099 196.18 83.6019 196.18C80.4939 196.18 78.0999 193.856 78.0999 190.846C78.0999 187.878 80.4239 185.456 83.5039 185.456C85.0579 185.456 86.4299 186.072 87.4099 187.066L86.3039 188.326C85.5479 187.458 84.4979 187.136 83.5739 187.136C81.4459 187.136 79.9199 188.844 79.9199 190.846C79.9199 192.876 81.4739 194.5 83.6159 194.5C85.1279 194.5 86.2899 193.688 86.4579 191.784H83.1959V190.02H88.2779ZM92.0773 195.998H90.2433V185.638H92.0773V195.998ZM100.953 195.998H94.3175V185.638H96.1515V194.234H100.953V195.998ZM104.259 195.998H102.425V185.638H104.259V195.998ZM110.895 195.998H109.061V187.402H105.729V185.638H114.213V187.402H110.895V195.998ZM120.715 195.998H118.881V191.406L115.129 185.638H117.257L119.791 189.684L122.339 185.638H124.467L120.715 191.392V195.998Z" fill="white"/>
<path d="M188.203 195.998H186.215L185.361 193.786H180.895L180.055 195.998H178.067L182.211 185.638H184.073L188.203 195.998ZM184.703 192.036L183.135 187.92L181.553 192.036H184.703ZM192.467 195.998H189.317V185.638H192.425C194.749 185.638 195.785 186.618 195.785 188.312C195.785 189.53 195.239 190.188 194.301 190.538C195.589 190.846 196.191 191.868 196.191 193.1C196.191 195.13 194.539 195.998 192.467 195.998ZM191.151 189.712H192.733C193.489 189.712 193.965 189.334 193.965 188.564C193.965 187.78 193.503 187.388 192.691 187.388H191.151V189.712ZM191.151 194.248H192.621C193.965 194.248 194.371 193.59 194.371 192.862C194.371 192.134 193.979 191.448 192.593 191.448H191.151V194.248ZM199.56 195.998H197.726V185.638H199.56V195.998ZM208.436 195.998H201.8V185.638H203.634V194.234H208.436V195.998ZM211.741 195.998H209.907V185.638H211.741V195.998ZM218.378 195.998H216.544V187.402H213.212V185.638H221.696V187.402H218.378V195.998ZM228.197 195.998H226.363V191.406L222.611 185.638H224.739L227.273 189.684L229.821 185.638H231.949L228.197 191.392V195.998Z" fill="white"/>
</svg>
